<?xml version="1.0" encoding="UTF-8" standalone="no"?>
<svg
   xmlns:dc="http://purl.org/dc/elements/1.1/"
   xmlns:cc="http://creativecommons.org/ns#"
   xmlns:rdf="http://www.w3.org/1999/02/22-rdf-syntax-ns#"
   xmlns:svg="http://www.w3.org/2000/svg"
   xmlns="http://www.w3.org/2000/svg"
   id="svg28"
   preserveAspectRatio="xMidYMid meet"
   viewBox="0 0 314.78369 283.46457"
   height="283.46457pt"
   width="314.78369pt"
   version="1.0">
  <defs
     id="defs32" />
  <metadata
     id="metadata22">
Created by potrace 1.15, written by Peter Selinger 2001-2017
<rdf:RDF>
  <cc:Work
     rdf:about="">
    <dc:format>image/svg+xml</dc:format>
    <dc:type
       rdf:resource="http://purl.org/dc/dcmitype/StillImage" />
    <dc:title></dc:title>
  </cc:Work>
</rdf:RDF>
</metadata>
  <path
     d="M135.9462 0.7431655L134.317741262 7.52545776248L132.947374194 14.3715961636L131.64646 21.2333L130.347816395 28.1582055231L129.03088928 35.0794288456L127.66522 41.988851L119.803978668 46.353845469L111.31558 49.845172L104.242827856 52.6774798998L96.983098 54.569581L91.0493504475 50.6513370934L85.1682362472 46.6524655576L79.306376 42.62585L73.5269166255 38.7294765136L67.7064390578 34.8956248652L61.73582 31.319118L56.289371987 36.0300156858L51.0985177867 41.0464818352L45.970094 46.129344L40.8949649754 51.2503414374L35.8712926427 56.4221504364L31.425284 62.001236L35.2317686267 68.0046929769L39.198048946 73.9105367398L43.209765 79.784125L47.1407719957 85.555207064L51.0100687922 91.366715762L54.675747 97.301597L51.7262909711 104.87963321L48.5484518883 112.370514007L45.2942290989 119.829385044L41.829601 127.18747L35.1938519804 128.811616895L28.4867520432 130.162510019L21.764132 131.43413L14.8685471371 132.733990805L7.98751825773 134.106448153L1.1678315 135.73387L0.0 136.42395L0.0 143.395542484L0.0 150.367103398L0.0 157.33875L0.0133023021771 164.532634968L0.0858157032408 171.727396985L0.7431655 178.83747L10.4494105928 181.00644174L20.224718 182.8718L26.8735937301 184.119363202L33.5136184829 185.40804481L40.130937 186.79996L44.1272190219 194.575568639L47.456425 202.72493L50.6374395517 210.80982995L53.614082 218.96841L49.4225412766 225.738423953L44.961513 232.34539L40.2616631433 239.185530362L35.5735934867 246.035873066L31.319117 253.10094L36.9863871888 259.406808354L42.9020551485 265.499758097L48.8777229699 271.532426577L54.9120953399 277.504642292L61.151904 283.25222L67.3030154303 280.198478291L73.1275699172 276.243407031L78.934793 272.26399L86.7828725904 266.920065739L94.806685 261.85967L102.98151 265.36317L110.94399 269.13208L112.53649 268.07041L116.180792341 259.505317583L119.773529718 250.917397908L123.352676707 242.32383818L126.92205 233.72555L130.432548061 225.171715671L133.910629235 216.606323374L137.332886087 208.016888086L140.45828 199.3276L138.44112 197.25736L132.081692767 192.802265823L126.17889 187.75546L120.964863527 181.279843652L117.10897848 173.916292745L114.783038903 165.935648748L114.02282 157.65725L114.441523561 150.970191587L115.986616157 144.457034999L118.58798 138.28187L123.390124387 130.646662494L129.661976961 124.166840026L137.131294368 119.111801998L145.4481 115.61532L151.360532714 114.509775216L157.39184 114.3944L163.421731032 114.509688989L169.33557 115.61532L176.591630302 118.52744084L183.25209481 122.61920904L189.08254 127.82447L194.417172884 134.744069219L198.281961774 142.579627836L200.499653618 151.029982181L200.957600772 159.754153976L199.613395365 168.387246739L196.51419 176.55489L192.135903125 183.799483511L186.345846206 189.964821378L179.63372 195.13403L174.43156 199.3276L177.685619582 208.205568188L181.187174415 216.997864876L184.744599176 225.768357552L188.33937 234.5218L191.974904627 243.27126166L195.630186364 252.012325656L199.346853521 260.727367103L203.73351 269.02591L211.80217 265.46933L219.71157 261.70042L225.404524031 265.159149034L230.965527699 268.839595413L236.48588 272.58249L244.7272688 278.174442263L253.15402 283.46456L259.558328111 277.749927511L265.703608906 271.73216487L271.775098057 265.6389889L277.771697737 259.471631471L283.46456 253.04785L280.014220904 247.288509547L276.303642116 241.679265168L272.52941 236.1143L268.767846356 230.604585371L265.028471729 225.081639185L261.38192 219.49924L264.195077056 211.289071039L267.377436111 203.197547752L270.682944781 195.154895102L274.33424 187.27771L280.905606158 185.596873569L287.564938471 184.247449034L294.24045 182.97796L300.87217967 181.738501943L307.490556352 180.420521683L314.04051 178.83747L314.714817545 171.770143824L314.774169101 164.608196152L314.78367 157.44492L314.75547217 150.293112813L314.66203056 143.139879874L314.35901 135.99929L307.703425727 134.302055153L300.951714834 132.939104208L294.18737 131.64646L287.26681392 130.338084366L280.357271921 128.974595214L273.4849 127.45288L269.680369731 119.951167756L266.31867 112.21799L263.029411108 104.408304943L260.53259 96.399182L264.371424096 90.548534272L268.30893127 84.761653915L272.26399 78.987876L276.120866572 73.313307699L279.913940152 67.5954359531L283.46456 61.73582L277.783448363 55.2805209745L271.772047141 49.1058112682L265.677423824 43.0111946042L259.50281813 36.9999099514L253.04785 31.319118L246.936251212 35.0424432339L240.970968026 39.0127006584L235.05263 43.050516L229.190030174 47.0748503506L223.308950204 51.0743324574L217.37591 54.994247L209.847840759 52.292077254L202.408089538 49.3285980674L195.00159664 46.2805723634L187.70237 42.997433L186.097043132 35.9388663882L184.693844706 28.8312604378L183.34955 21.711049L181.999458015 14.5724124321L180.567017131 7.44922045034L178.78439 0.424666L171.643320092 0.121632118808L164.492302066 0.028212248302L157.33875 0.0L150.176768518 0.00955607694399L143.013711868 0.0692421067677L135.9462 0.7431655L135.9462 0.7431655"
     id="path24"
     style="fill:#000000;stroke:none;stroke-width:0.05308325" />
</svg>
