  0
SECTION
  2
HEADER
  9
$ACADVER
  1
AC1014
  9
$HANDSEED
  5
FFFF
  9
$MEASUREMENT
 70
     1
  0
ENDSEC
  0
SECTION
  2
TABLES
  0
TABLE
  2
VPORT
  5
8
330
0
100
AcDbSymbolTable
 70
     4
  0
VPORT
  5
2E
330
8
100
AcDbSymbolTableRecord
100
AcDbViewportTableRecord
  2
*ACTIVE
 70
     0
 10
0.0
 20
0.0
 11
1.0
 21
1.0
 12
210.0
 22
148.5
 13
0.0
 23
0.0
 14
10.0
 24
10.0
 15
10.0
 25
10.0
 16
0.0
 26
0.0
 36
1.0
 17
0.0
 27
0.0
 37
0.0
 40
341.0
 41
1.24
 42
50.0
 43
0.0
 44
0.0
 50
0.0
 51
0.0
 71
     0
 72
   100
 73
     1
 74
     3
 75
     0
 76
     0
 77
     0
 78
     0
  0
ENDTAB
  0
TABLE
  2
LTYPE
  5
5
330
0
100
AcDbSymbolTable
 70
     1
  0
LTYPE
  5
14
330
5
100
AcDbSymbolTableRecord
100
AcDbLinetypeTableRecord
  2
BYBLOCK
 70
     0
  3

 72
    65
 73
     0
 40
0.0
  0
LTYPE
  5
15
330
5
100
AcDbSymbolTableRecord
100
AcDbLinetypeTableRecord
  2
BYLAYER
 70
     0
  3

 72
    65
 73
     0
 40
0.0
  0
LTYPE
  5
16
330
5
100
AcDbSymbolTableRecord
100
AcDbLinetypeTableRecord
  2
CONTINUOUS
 70
     0
  3
Solid line
 72
    65
 73
     0
 40
0.0
  0
ENDTAB
  0
TABLE
  2
LAYER
  5
2
100
AcDbSymbolTable
 70
1
  0
LAYER
  5
50
100
AcDbSymbolTableRecord
100
AcDbLayerTableRecord
  2
0
 70
0
  6
CONTINUOUS
  0
ENDTAB
  0
TABLE
  2
STYLE
  5
3
330
0
100
AcDbSymbolTable
 70
     1
  0
STYLE
  5
11
330
3
100
AcDbSymbolTableRecord
100
AcDbTextStyleTableRecord
  2
STANDARD
 70
     0
 40
0.0
 41
1.0
 50
0.0
 71
     0
 42
2.5
  3
txt
  4

  0
ENDTAB
  0
TABLE
  2
VIEW
  5
6
330
0
100
AcDbSymbolTable
 70
     0
  0
ENDTAB
  0
TABLE
  2
UCS
  5
7
330
0
100
AcDbSymbolTable
 70
     0
  0
ENDTAB
  0
TABLE
  2
APPID
  5
9
330
0
100
AcDbSymbolTable
 70
     2
  0
APPID
  5
12
330
9
100
AcDbSymbolTableRecord
100
AcDbRegAppTableRecord
  2
ACAD
 70
     0
  0
ENDTAB
  0
TABLE
  2
DIMSTYLE
  5
A
330
0
100
AcDbSymbolTable
 70
     1
  0
DIMSTYLE
105
27
330
A
100
AcDbSymbolTableRecord
100
AcDbDimStyleTableRecord
  2
ISO-25
 70
     0
  3

  4

  5

  6

  7

 40
1.0
 41
2.5
 42
0.625
 43
3.75
 44
1.25
 45
0.0
 46
0.0
 47
0.0
 48
0.0
140
2.5
141
2.5
142
0.0
143
0.03937007874016
144
1.0
145
0.0
146
1.0
147
0.625
 71
     0
 72
     0
 73
     0
 74
     0
 75
     0
 76
     0
 77
     1
 78
     8
170
     0
171
     3
172
     1
173
     0
174
     0
175
     0
176
     0
177
     0
178
     0
270
     2
271
     2
272
     2
273
     2
274
     3
340
11
275
     0
280
     0
281
     0
282
     0
283
     0
284
     8
285
     0
286
     0
287
     3
288
     0
  0
ENDTAB
  0
TABLE
  2
BLOCK_RECORD
  5
1
330
0
100
AcDbSymbolTable
 70
     1
  0
BLOCK_RECORD
  5
1F
330
1
100
AcDbSymbolTableRecord
100
AcDbBlockTableRecord
  2
*MODEL_SPACE
  0
BLOCK_RECORD
  5
1B
330
1
100
AcDbSymbolTableRecord
100
AcDbBlockTableRecord
  2
*PAPER_SPACE
  0
ENDTAB
  0
ENDSEC
  0
SECTION
  2
BLOCKS
  0
BLOCK
  5
20
330
1F
100
AcDbEntity
  8
0
100
AcDbBlockBegin
  2
*MODEL_SPACE
 70
     0
 10
0.0
 20
0.0
 30
0.0
  3
*MODEL_SPACE
  1

  0
ENDBLK
  5
21
330
1F
100
AcDbEntity
  8
0
100
AcDbBlockEnd
  0
BLOCK
  5
1C
330
1B
100
AcDbEntity
 67
     1
  8
0
100
AcDbBlockBegin
  2
*PAPER_SPACE
  1

  0
ENDBLK
  5
1D
330
1B
100
AcDbEntity
 67
     1
  8
0
100
AcDbBlockEnd
  0
ENDSEC
  0
SECTION
  2
ENTITIES
  0
LWPOLYLINE
  5
100
100
AcDbEntity
  8
0
 62
7
100
AcDbPolyline
 90
197
 70
1
 10
135.946200
 20
282.721404
 30
0.0
 10
134.317741
 20
275.939112
 30
0.0
 10
132.947374
 20
269.092974
 30
0.0
 10
131.646460
 20
262.231270
 30
0.0
 10
130.347816
 20
255.306364
 30
0.0
 10
129.030889
 20
248.385141
 30
0.0
 10
127.665220
 20
241.475719
 30
0.0
 10
119.803979
 20
237.110725
 30
0.0
 10
111.315580
 20
233.619398
 30
0.0
 10
104.242828
 20
230.787090
 30
0.0
 10
96.983098
 20
228.894989
 30
0.0
 10
91.049350
 20
232.813233
 30
0.0
 10
85.168236
 20
236.812104
 30
0.0
 10
79.306376
 20
240.838720
 30
0.0
 10
73.526917
 20
244.735093
 30
0.0
 10
67.706439
 20
248.568945
 30
0.0
 10
61.735820
 20
252.145452
 30
0.0
 10
56.289372
 20
247.434554
 30
0.0
 10
51.098518
 20
242.418088
 30
0.0
 10
45.970094
 20
237.335226
 30
0.0
 10
40.894965
 20
232.214229
 30
0.0
 10
35.871293
 20
227.042420
 30
0.0
 10
31.425284
 20
221.463334
 30
0.0
 10
35.231769
 20
215.459877
 30
0.0
 10
39.198049
 20
209.554033
 30
0.0
 10
43.209765
 20
203.680445
 30
0.0
 10
47.140772
 20
197.909363
 30
0.0
 10
51.010069
 20
192.097854
 30
0.0
 10
54.675747
 20
186.162973
 30
0.0
 10
51.726291
 20
178.584937
 30
0.0
 10
48.548452
 20
171.094056
 30
0.0
 10
45.294229
 20
163.635185
 30
0.0
 10
41.829601
 20
156.277100
 30
0.0
 10
35.193852
 20
154.652953
 30
0.0
 10
28.486752
 20
153.302060
 30
0.0
 10
21.764132
 20
152.030440
 30
0.0
 10
14.868547
 20
150.730579
 30
0.0
 10
7.987518
 20
149.358122
 30
0.0
 10
1.167831
 20
147.730700
 30
0.0
 10
0.000000
 20
147.040620
 30
0.0
 10
0.000000
 20
140.069028
 30
0.0
 10
0.000000
 20
133.097467
 30
0.0
 10
0.000000
 20
126.125820
 30
0.0
 10
0.013302
 20
118.931935
 30
0.0
 10
0.085816
 20
111.737173
 30
0.0
 10
0.743165
 20
104.627100
 30
0.0
 10
10.449411
 20
102.458128
 30
0.0
 10
20.224718
 20
100.592770
 30
0.0
 10
26.873594
 20
99.345207
 30
0.0
 10
33.513618
 20
98.056525
 30
0.0
 10
40.130937
 20
96.664610
 30
0.0
 10
44.127219
 20
88.889001
 30
0.0
 10
47.456425
 20
80.739640
 30
0.0
 10
50.637440
 20
72.654740
 30
0.0
 10
53.614082
 20
64.496160
 30
0.0
 10
49.422541
 20
57.726146
 30
0.0
 10
44.961513
 20
51.119180
 30
0.0
 10
40.261663
 20
44.279040
 30
0.0
 10
35.573593
 20
37.428697
 30
0.0
 10
31.319117
 20
30.363630
 30
0.0
 10
36.986387
 20
24.057762
 30
0.0
 10
42.902055
 20
17.964812
 30
0.0
 10
48.877723
 20
11.932143
 30
0.0
 10
54.912095
 20
5.959928
 30
0.0
 10
61.151904
 20
0.212350
 30
0.0
 10
67.303015
 20
3.266092
 30
0.0
 10
73.127570
 20
7.221163
 30
0.0
 10
78.934793
 20
11.200580
 30
0.0
 10
86.782873
 20
16.544504
 30
0.0
 10
94.806685
 20
21.604900
 30
0.0
 10
102.981510
 20
18.101400
 30
0.0
 10
110.943990
 20
14.332490
 30
0.0
 10
112.536490
 20
15.394160
 30
0.0
 10
116.180792
 20
23.959252
 30
0.0
 10
119.773530
 20
32.547172
 30
0.0
 10
123.352677
 20
41.140732
 30
0.0
 10
126.922050
 20
49.739020
 30
0.0
 10
130.432548
 20
58.292854
 30
0.0
 10
133.910629
 20
66.858247
 30
0.0
 10
137.332886
 20
75.447682
 30
0.0
 10
140.458280
 20
84.136970
 30
0.0
 10
138.441120
 20
86.207210
 30
0.0
 10
132.081693
 20
90.662304
 30
0.0
 10
126.178890
 20
95.709110
 30
0.0
 10
120.964864
 20
102.184726
 30
0.0
 10
117.108978
 20
109.548277
 30
0.0
 10
114.783039
 20
117.528921
 30
0.0
 10
114.022820
 20
125.807320
 30
0.0
 10
114.441524
 20
132.494378
 30
0.0
 10
115.986616
 20
139.007535
 30
0.0
 10
118.587980
 20
145.182700
 30
0.0
 10
123.390124
 20
152.817908
 30
0.0
 10
129.661977
 20
159.297730
 30
0.0
 10
137.131294
 20
164.352768
 30
0.0
 10
145.448100
 20
167.849250
 30
0.0
 10
151.360533
 20
168.954795
 30
0.0
 10
157.391840
 20
169.070170
 30
0.0
 10
163.421731
 20
168.954881
 30
0.0
 10
169.335570
 20
167.849250
 30
0.0
 10
176.591630
 20
164.937129
 30
0.0
 10
183.252095
 20
160.845361
 30
0.0
 10
189.082540
 20
155.640100
 30
0.0
 10
194.417173
 20
148.720501
 30
0.0
 10
198.281962
 20
140.884942
 30
0.0
 10
200.499654
 20
132.434588
 30
0.0
 10
200.957601
 20
123.710416
 30
0.0
 10
199.613395
 20
115.077323
 30
0.0
 10
196.514190
 20
106.909680
 30
0.0
 10
192.135903
 20
99.665086
 30
0.0
 10
186.345846
 20
93.499749
 30
0.0
 10
179.633720
 20
88.330540
 30
0.0
 10
174.431560
 20
84.136970
 30
0.0
 10
177.685620
 20
75.259002
 30
0.0
 10
181.187174
 20
66.466705
 30
0.0
 10
184.744599
 20
57.696212
 30
0.0
 10
188.339370
 20
48.942770
 30
0.0
 10
191.974905
 20
40.193308
 30
0.0
 10
195.630186
 20
31.452244
 30
0.0
 10
199.346854
 20
22.737203
 30
0.0
 10
203.733510
 20
14.438660
 30
0.0
 10
211.802170
 20
17.995240
 30
0.0
 10
219.711570
 20
21.764150
 30
0.0
 10
225.404524
 20
18.305421
 30
0.0
 10
230.965528
 20
14.624975
 30
0.0
 10
236.485880
 20
10.882080
 30
0.0
 10
244.727269
 20
5.290128
 30
0.0
 10
253.154020
 20
0.000010
 30
0.0
 10
259.558328
 20
5.714642
 30
0.0
 10
265.703609
 20
11.732405
 30
0.0
 10
271.775098
 20
17.825581
 30
0.0
 10
277.771698
 20
23.992939
 30
0.0
 10
283.464560
 20
30.416720
 30
0.0
 10
280.014221
 20
36.176060
 30
0.0
 10
276.303642
 20
41.785305
 30
0.0
 10
272.529410
 20
47.350270
 30
0.0
 10
268.767846
 20
52.859985
 30
0.0
 10
265.028472
 20
58.382931
 30
0.0
 10
261.381920
 20
63.965330
 30
0.0
 10
264.195077
 20
72.175499
 30
0.0
 10
267.377436
 20
80.267022
 30
0.0
 10
270.682945
 20
88.309675
 30
0.0
 10
274.334240
 20
96.186860
 30
0.0
 10
280.905606
 20
97.867696
 30
0.0
 10
287.564938
 20
99.217121
 30
0.0
 10
294.240450
 20
100.486610
 30
0.0
 10
300.872180
 20
101.726068
 30
0.0
 10
307.490556
 20
103.044048
 30
0.0
 10
314.040510
 20
104.627100
 30
0.0
 10
314.714818
 20
111.694426
 30
0.0
 10
314.774169
 20
118.856374
 30
0.0
 10
314.783670
 20
126.019650
 30
0.0
 10
314.755472
 20
133.171457
 30
0.0
 10
314.662031
 20
140.324690
 30
0.0
 10
314.359010
 20
147.465280
 30
0.0
 10
307.703426
 20
149.162515
 30
0.0
 10
300.951715
 20
150.525466
 30
0.0
 10
294.187370
 20
151.818110
 30
0.0
 10
287.266814
 20
153.126486
 30
0.0
 10
280.357272
 20
154.489975
 30
0.0
 10
273.484900
 20
156.011690
 30
0.0
 10
269.680370
 20
163.513402
 30
0.0
 10
266.318670
 20
171.246580
 30
0.0
 10
263.029411
 20
179.056265
 30
0.0
 10
260.532590
 20
187.065388
 30
0.0
 10
264.371424
 20
192.916036
 30
0.0
 10
268.308931
 20
198.702916
 30
0.0
 10
272.263990
 20
204.476694
 30
0.0
 10
276.120867
 20
210.151262
 30
0.0
 10
279.913940
 20
215.869134
 30
0.0
 10
283.464560
 20
221.728750
 30
0.0
 10
277.783448
 20
228.184049
 30
0.0
 10
271.772047
 20
234.358759
 30
0.0
 10
265.677424
 20
240.453375
 30
0.0
 10
259.502818
 20
246.464660
 30
0.0
 10
253.047850
 20
252.145452
 30
0.0
 10
246.936251
 20
248.422127
 30
0.0
 10
240.970968
 20
244.451869
 30
0.0
 10
235.052630
 20
240.414054
 30
0.0
 10
229.190030
 20
236.389720
 30
0.0
 10
223.308950
 20
232.390238
 30
0.0
 10
217.375910
 20
228.470323
 30
0.0
 10
209.847841
 20
231.172493
 30
0.0
 10
202.408090
 20
234.135972
 30
0.0
 10
195.001597
 20
237.183998
 30
0.0
 10
187.702370
 20
240.467137
 30
0.0
 10
186.097043
 20
247.525704
 30
0.0
 10
184.693845
 20
254.633310
 30
0.0
 10
183.349550
 20
261.753521
 30
0.0
 10
181.999458
 20
268.892158
 30
0.0
 10
180.567017
 20
276.015350
 30
0.0
 10
178.784390
 20
283.039904
 30
0.0
 10
171.643320
 20
283.342938
 30
0.0
 10
164.492302
 20
283.436358
 30
0.0
 10
157.338750
 20
283.464570
 30
0.0
 10
150.176769
 20
283.455014
 30
0.0
 10
143.013712
 20
283.395328
 30
0.0
 10
135.946200
 20
282.721404
 30
0.0
  0
ENDSEC
  0
SECTION
  2
OBJECTS
  0
DICTIONARY
  5
C
330
0
100
AcDbDictionary
  3
ACAD_GROUP
350
D
  3
ACAD_MLINESTYLE
350
17
  0
DICTIONARY
  5
D
330
C
100
AcDbDictionary
  0
DICTIONARY
  5
1A
330
C
100
AcDbDictionary
  0
DICTIONARY
  5
17
330
C
100
AcDbDictionary
  3
STANDARD
350
18
  0
DICTIONARY
  5
19
330
C
100
AcDbDictionary
  0
ENDSEC
  0
EOF
