G75*
%MOIN*%
%OFA0B0*%
%FSLAX25Y25*%
%IPPOS*%
%LPD*%
%AMOC8*
5,1,8,0,0,1.08239X$1,22.5*
%
%ADD10C,0.05200*%
%ADD11C,0.05150*%
%ADD12OC8,0.06300*%
%ADD13OC8,0.05600*%
%ADD14OC8,0.15811*%
%ADD15C,0.07600*%
%ADD16C,0.01600*%
%ADD17C,0.04000*%
D10*
X0067250Y0112400D02*
X0067250Y0117600D01*
X0077250Y0117600D02*
X0077250Y0112400D01*
X0087250Y0112400D02*
X0087250Y0117600D01*
X0097250Y0117600D02*
X0097250Y0112400D01*
X0107250Y0112400D02*
X0107250Y0117600D01*
X0117250Y0117600D02*
X0117250Y0112400D01*
X0127250Y0112400D02*
X0127250Y0117600D01*
X0137250Y0117600D02*
X0137250Y0112400D01*
X0147250Y0112400D02*
X0147250Y0117600D01*
X0157250Y0117600D02*
X0157250Y0112400D01*
X0167250Y0112400D02*
X0167250Y0117600D01*
X0177250Y0117600D02*
X0177250Y0112400D01*
X0177250Y0142400D02*
X0177250Y0147600D01*
X0167250Y0147600D02*
X0167250Y0142400D01*
X0157250Y0142400D02*
X0157250Y0147600D01*
X0147250Y0147600D02*
X0147250Y0142400D01*
X0137250Y0142400D02*
X0137250Y0147600D01*
X0127250Y0147600D02*
X0127250Y0142400D01*
X0117250Y0142400D02*
X0117250Y0147600D01*
X0107250Y0147600D02*
X0107250Y0142400D01*
X0097250Y0142400D02*
X0097250Y0147600D01*
X0087250Y0147600D02*
X0087250Y0142400D01*
X0077250Y0142400D02*
X0077250Y0147600D01*
X0067250Y0147600D02*
X0067250Y0142400D01*
X0307250Y0142400D02*
X0307250Y0147600D01*
X0317250Y0147600D02*
X0317250Y0142400D01*
X0327250Y0142400D02*
X0327250Y0147600D01*
X0337250Y0147600D02*
X0337250Y0142400D01*
X0347250Y0142400D02*
X0347250Y0147600D01*
X0357250Y0147600D02*
X0357250Y0142400D01*
X0367250Y0142400D02*
X0367250Y0147600D01*
X0377250Y0147600D02*
X0377250Y0142400D01*
X0387250Y0142400D02*
X0387250Y0147600D01*
X0397250Y0147600D02*
X0397250Y0142400D01*
X0407250Y0142400D02*
X0407250Y0147600D01*
X0417250Y0147600D02*
X0417250Y0142400D01*
X0417250Y0117600D02*
X0417250Y0112400D01*
X0407250Y0112400D02*
X0407250Y0117600D01*
X0397250Y0117600D02*
X0397250Y0112400D01*
X0387250Y0112400D02*
X0387250Y0117600D01*
X0377250Y0117600D02*
X0377250Y0112400D01*
X0367250Y0112400D02*
X0367250Y0117600D01*
X0357250Y0117600D02*
X0357250Y0112400D01*
X0347250Y0112400D02*
X0347250Y0117600D01*
X0337250Y0117600D02*
X0337250Y0112400D01*
X0327250Y0112400D02*
X0327250Y0117600D01*
X0317250Y0117600D02*
X0317250Y0112400D01*
X0307250Y0112400D02*
X0307250Y0117600D01*
D11*
X0327250Y0035000D03*
X0337250Y0035000D03*
X0347250Y0035000D03*
X0357250Y0035000D03*
X0367250Y0035000D03*
X0377250Y0035000D03*
X0387250Y0035000D03*
X0397250Y0035000D03*
X0397250Y0215000D03*
X0387250Y0215000D03*
X0377250Y0215000D03*
X0367250Y0215000D03*
X0357250Y0215000D03*
X0347250Y0215000D03*
X0337250Y0215000D03*
X0327250Y0215000D03*
X0157250Y0215000D03*
X0147250Y0215000D03*
X0137250Y0215000D03*
X0127250Y0215000D03*
X0117250Y0215000D03*
X0107250Y0215000D03*
X0097250Y0215000D03*
X0087250Y0215000D03*
X0087250Y0035000D03*
X0097250Y0035000D03*
X0107250Y0035000D03*
X0117250Y0035000D03*
X0127250Y0035000D03*
X0137250Y0035000D03*
X0147250Y0035000D03*
X0157250Y0035000D03*
D12*
X0217250Y0120000D03*
X0237250Y0120000D03*
X0237250Y0140000D03*
X0217250Y0140000D03*
X0127250Y0160000D03*
X0127250Y0180000D03*
X0367250Y0180000D03*
X0367250Y0160000D03*
D13*
X0402250Y0290000D03*
X0402250Y0300000D03*
X0412250Y0300000D03*
X0412250Y0290000D03*
X0412250Y0310000D03*
X0412250Y0320000D03*
X0402250Y0320000D03*
X0402250Y0310000D03*
X0402250Y0330000D03*
X0412250Y0330000D03*
X0272250Y0330000D03*
X0262250Y0330000D03*
X0262250Y0320000D03*
X0262250Y0310000D03*
X0272250Y0310000D03*
X0272250Y0320000D03*
X0272250Y0300000D03*
X0272250Y0290000D03*
X0262250Y0290000D03*
X0262250Y0300000D03*
D14*
X0102250Y0265000D03*
X0090439Y0245315D03*
X0062880Y0284685D03*
D15*
X0072250Y0300000D03*
X0082250Y0300000D03*
X0092250Y0300000D03*
X0102250Y0300000D03*
X0112250Y0300000D03*
X0122250Y0300000D03*
X0132250Y0300000D03*
X0142250Y0300000D03*
X0152250Y0300000D03*
X0162250Y0300000D03*
X0172250Y0300000D03*
X0182250Y0300000D03*
X0192250Y0300000D03*
X0202250Y0300000D03*
X0212250Y0300000D03*
X0212250Y0390000D03*
X0202250Y0390000D03*
X0192250Y0390000D03*
X0182250Y0390000D03*
X0172250Y0390000D03*
X0162250Y0390000D03*
X0152250Y0390000D03*
X0142250Y0390000D03*
X0132250Y0390000D03*
X0122250Y0390000D03*
X0112250Y0390000D03*
X0102250Y0390000D03*
X0092250Y0390000D03*
X0082250Y0390000D03*
X0072250Y0390000D03*
D16*
X0082250Y0390000D02*
X0083100Y0389500D01*
X0083100Y0388450D01*
X0134550Y0337000D01*
X0265800Y0337000D01*
X0272100Y0330700D01*
X0272250Y0330000D01*
X0273150Y0330700D01*
X0279450Y0330700D01*
X0279450Y0287650D01*
X0271050Y0279250D01*
X0230100Y0279250D01*
X0230100Y0137500D01*
X0236400Y0131200D01*
X0236400Y0120700D01*
X0237250Y0120000D01*
X0217250Y0120000D02*
X0216450Y0119650D01*
X0216450Y0112300D01*
X0197550Y0093400D01*
X0192300Y0093400D01*
X0195450Y0099700D02*
X0195450Y0101800D01*
X0209625Y0115975D01*
X0210150Y0115450D01*
X0209625Y0115975D02*
X0210150Y0116500D01*
X0210150Y0186850D01*
X0212250Y0193150D02*
X0216450Y0188950D01*
X0216450Y0140650D01*
X0217250Y0140000D01*
X0203850Y0154300D02*
X0178650Y0179500D01*
X0163950Y0185800D02*
X0142950Y0185800D01*
X0111450Y0154300D01*
X0094650Y0154300D01*
X0086250Y0145900D01*
X0087250Y0145000D01*
X0096750Y0144850D02*
X0096750Y0142750D01*
X0089400Y0135400D01*
X0075750Y0135400D01*
X0061050Y0120700D01*
X0061050Y0109150D01*
X0107250Y0062950D01*
X0107250Y0035000D01*
X0097250Y0035000D02*
X0096750Y0035650D01*
X0061050Y0071350D01*
X0092550Y0069250D02*
X0056850Y0104950D01*
X0056850Y0145900D01*
X0114600Y0203650D01*
X0146100Y0203650D01*
X0156600Y0214150D01*
X0157250Y0215000D01*
X0163950Y0217300D02*
X0163950Y0193150D01*
X0212250Y0193150D01*
X0192300Y0157450D02*
X0163950Y0185800D01*
X0161850Y0179500D02*
X0188100Y0153250D01*
X0188100Y0107050D01*
X0176550Y0095500D01*
X0125100Y0095500D01*
X0107250Y0113350D01*
X0107250Y0115000D01*
X0104100Y0123850D02*
X0139800Y0123850D01*
X0148200Y0115450D01*
X0147250Y0115000D01*
X0148200Y0114400D01*
X0148200Y0112300D01*
X0154500Y0106000D01*
X0172350Y0106000D01*
X0174450Y0099700D02*
X0151350Y0099700D01*
X0136650Y0114400D01*
X0137250Y0115000D01*
X0104100Y0123850D02*
X0097800Y0117550D01*
X0097800Y0115450D01*
X0097250Y0115000D01*
X0087300Y0123850D02*
X0107250Y0143800D01*
X0107250Y0145000D01*
X0097250Y0145000D02*
X0096750Y0144850D01*
X0071550Y0150100D02*
X0071550Y0151150D01*
X0119850Y0199450D01*
X0157650Y0199450D01*
X0163950Y0193150D02*
X0140850Y0193150D01*
X0128250Y0180550D01*
X0127250Y0180000D01*
X0140850Y0174250D02*
X0159750Y0174250D01*
X0183900Y0150100D01*
X0183900Y0109150D01*
X0174450Y0099700D01*
X0192300Y0104950D02*
X0192300Y0157450D01*
X0192300Y0104950D02*
X0128250Y0040900D01*
X0128250Y0035650D01*
X0127250Y0035000D01*
X0147250Y0035000D02*
X0148200Y0035650D01*
X0208050Y0095500D01*
X0259500Y0093400D02*
X0259500Y0177400D01*
X0307800Y0225700D01*
X0402300Y0225700D01*
X0408600Y0219400D01*
X0408600Y0196300D01*
X0379200Y0166900D01*
X0364500Y0166900D01*
X0347700Y0150100D01*
X0347700Y0145900D01*
X0347250Y0145000D01*
X0338250Y0145900D02*
X0337250Y0145000D01*
X0338250Y0145900D02*
X0338250Y0148000D01*
X0361350Y0171100D01*
X0377100Y0171100D01*
X0404400Y0198400D01*
X0404400Y0217300D01*
X0400200Y0221500D01*
X0309900Y0221500D01*
X0263700Y0175300D01*
X0263700Y0095500D01*
X0274200Y0085000D01*
X0297300Y0085000D01*
X0346650Y0035650D01*
X0347250Y0035000D01*
X0337250Y0035000D02*
X0337200Y0035650D01*
X0335100Y0035650D01*
X0289950Y0080800D01*
X0272100Y0080800D01*
X0259500Y0093400D01*
X0267900Y0097600D02*
X0276300Y0089200D01*
X0403350Y0089200D01*
X0423300Y0109150D01*
X0423300Y0120700D01*
X0420150Y0123850D01*
X0404400Y0123850D01*
X0398100Y0117550D01*
X0398100Y0115450D01*
X0397250Y0115000D01*
X0387250Y0115000D02*
X0386550Y0114400D01*
X0386550Y0112300D01*
X0380250Y0106000D01*
X0344550Y0106000D01*
X0338250Y0112300D01*
X0338250Y0114400D01*
X0337250Y0115000D01*
X0338250Y0111250D01*
X0333000Y0106000D01*
X0304650Y0106000D01*
X0291000Y0119650D01*
X0272100Y0128050D02*
X0272100Y0099700D01*
X0276300Y0095500D01*
X0333000Y0095500D01*
X0317250Y0123850D02*
X0369750Y0123850D01*
X0378150Y0115450D01*
X0377250Y0115000D01*
X0385500Y0135400D02*
X0378150Y0142750D01*
X0378150Y0144850D01*
X0377250Y0145000D01*
X0385500Y0135400D02*
X0421200Y0135400D01*
X0431700Y0124900D01*
X0431700Y0104950D01*
X0398100Y0071350D01*
X0398100Y0035650D01*
X0397250Y0035000D01*
X0367650Y0035650D02*
X0367250Y0035000D01*
X0367650Y0035650D02*
X0367650Y0047200D01*
X0427500Y0107050D01*
X0427500Y0122800D01*
X0419100Y0131200D01*
X0339300Y0131200D01*
X0327750Y0142750D01*
X0327750Y0144850D01*
X0327250Y0145000D01*
X0310950Y0149050D02*
X0307800Y0145900D01*
X0307250Y0145000D01*
X0310950Y0149050D02*
X0310950Y0150100D01*
X0361350Y0200500D01*
X0398100Y0200500D01*
X0384450Y0194200D02*
X0370800Y0180550D01*
X0367650Y0180550D01*
X0367250Y0180000D01*
X0357150Y0206800D02*
X0300450Y0150100D01*
X0300450Y0140650D01*
X0317250Y0123850D01*
X0300450Y0156400D02*
X0272100Y0128050D01*
X0278400Y0101800D02*
X0405450Y0101800D01*
X0413850Y0110200D01*
X0413850Y0111250D01*
X0417000Y0114400D01*
X0417250Y0115000D01*
X0324600Y0203650D02*
X0298350Y0203650D01*
X0267900Y0173200D01*
X0267900Y0097600D01*
X0300450Y0156400D02*
X0300450Y0197350D01*
X0324600Y0203650D02*
X0335100Y0214150D01*
X0337200Y0214150D01*
X0337250Y0215000D01*
X0357150Y0214150D02*
X0357150Y0206800D01*
X0357150Y0214150D02*
X0357250Y0215000D01*
X0414900Y0283450D02*
X0292050Y0283450D01*
X0285750Y0289750D02*
X0401250Y0289750D01*
X0402250Y0290000D01*
X0412800Y0299200D02*
X0412250Y0300000D01*
X0412800Y0299200D02*
X0419100Y0292900D01*
X0419100Y0287650D01*
X0414900Y0283450D01*
X0412250Y0330000D02*
X0411750Y0330700D01*
X0405450Y0337000D01*
X0400200Y0337000D01*
X0393900Y0330700D01*
X0279450Y0330700D01*
X0272250Y0290000D02*
X0272100Y0289750D01*
X0265800Y0283450D01*
X0156600Y0283450D01*
X0141900Y0298150D01*
X0142250Y0300000D01*
X0141900Y0299200D01*
X0133500Y0290800D01*
X0121950Y0290800D01*
X0149250Y0284500D02*
X0154500Y0279250D01*
X0230100Y0279250D01*
X0163950Y0217300D02*
X0116700Y0264550D01*
X0103050Y0264550D01*
X0102250Y0265000D01*
X0063150Y0284500D02*
X0062880Y0284685D01*
X0063150Y0284500D02*
X0149250Y0284500D01*
X0071550Y0150100D02*
X0067350Y0145900D01*
X0067250Y0145000D01*
X0083100Y0123850D02*
X0087300Y0123850D01*
D17*
X0061050Y0071350D03*
X0092550Y0069250D03*
X0083100Y0123850D03*
X0140850Y0174250D03*
X0161850Y0179500D03*
X0178650Y0179500D03*
X0157650Y0199450D03*
X0210150Y0186850D03*
X0203850Y0154300D03*
X0210150Y0115450D03*
X0195450Y0099700D03*
X0192300Y0093400D03*
X0208050Y0095500D03*
X0172350Y0106000D03*
X0278400Y0101800D03*
X0291000Y0119650D03*
X0333000Y0095500D03*
X0384450Y0194200D03*
X0398100Y0200500D03*
X0300450Y0197350D03*
X0292050Y0283450D03*
X0285750Y0289750D03*
X0121950Y0290800D03*
M02*
