G75*
%MOIN*%
%OFA0B0*%
%FSLAX25Y25*%
%IPPOS*%
%LPD*%
%AMOC8*
5,1,8,0,0,1.08239X$1,22.5*
%
%ADD10C,0.00600*%
%ADD11C,0.05200*%
%ADD12C,0.05150*%
%ADD13OC8,0.06300*%
%ADD14OC8,0.05600*%
%ADD15OC8,0.15811*%
%ADD16C,0.07600*%
%ADD17C,0.00000*%
%ADD18C,0.01600*%
%ADD19C,0.04000*%
%ADD20C,0.02400*%
D10*
X0047250Y0025000D02*
X0047250Y0400000D01*
X0437250Y0400000D01*
X0437250Y0025000D01*
X0047250Y0025000D01*
D11*
X0067250Y0112400D02*
X0067250Y0117600D01*
X0077250Y0117600D02*
X0077250Y0112400D01*
X0087250Y0112400D02*
X0087250Y0117600D01*
X0097250Y0117600D02*
X0097250Y0112400D01*
X0107250Y0112400D02*
X0107250Y0117600D01*
X0117250Y0117600D02*
X0117250Y0112400D01*
X0127250Y0112400D02*
X0127250Y0117600D01*
X0137250Y0117600D02*
X0137250Y0112400D01*
X0147250Y0112400D02*
X0147250Y0117600D01*
X0157250Y0117600D02*
X0157250Y0112400D01*
X0167250Y0112400D02*
X0167250Y0117600D01*
X0177250Y0117600D02*
X0177250Y0112400D01*
X0177250Y0142400D02*
X0177250Y0147600D01*
X0167250Y0147600D02*
X0167250Y0142400D01*
X0157250Y0142400D02*
X0157250Y0147600D01*
X0147250Y0147600D02*
X0147250Y0142400D01*
X0137250Y0142400D02*
X0137250Y0147600D01*
X0127250Y0147600D02*
X0127250Y0142400D01*
X0117250Y0142400D02*
X0117250Y0147600D01*
X0107250Y0147600D02*
X0107250Y0142400D01*
X0097250Y0142400D02*
X0097250Y0147600D01*
X0087250Y0147600D02*
X0087250Y0142400D01*
X0077250Y0142400D02*
X0077250Y0147600D01*
X0067250Y0147600D02*
X0067250Y0142400D01*
X0307250Y0142400D02*
X0307250Y0147600D01*
X0317250Y0147600D02*
X0317250Y0142400D01*
X0327250Y0142400D02*
X0327250Y0147600D01*
X0337250Y0147600D02*
X0337250Y0142400D01*
X0347250Y0142400D02*
X0347250Y0147600D01*
X0357250Y0147600D02*
X0357250Y0142400D01*
X0367250Y0142400D02*
X0367250Y0147600D01*
X0377250Y0147600D02*
X0377250Y0142400D01*
X0387250Y0142400D02*
X0387250Y0147600D01*
X0397250Y0147600D02*
X0397250Y0142400D01*
X0407250Y0142400D02*
X0407250Y0147600D01*
X0417250Y0147600D02*
X0417250Y0142400D01*
X0417250Y0117600D02*
X0417250Y0112400D01*
X0407250Y0112400D02*
X0407250Y0117600D01*
X0397250Y0117600D02*
X0397250Y0112400D01*
X0387250Y0112400D02*
X0387250Y0117600D01*
X0377250Y0117600D02*
X0377250Y0112400D01*
X0367250Y0112400D02*
X0367250Y0117600D01*
X0357250Y0117600D02*
X0357250Y0112400D01*
X0347250Y0112400D02*
X0347250Y0117600D01*
X0337250Y0117600D02*
X0337250Y0112400D01*
X0327250Y0112400D02*
X0327250Y0117600D01*
X0317250Y0117600D02*
X0317250Y0112400D01*
X0307250Y0112400D02*
X0307250Y0117600D01*
D12*
X0327250Y0035000D03*
X0337250Y0035000D03*
X0347250Y0035000D03*
X0357250Y0035000D03*
X0367250Y0035000D03*
X0377250Y0035000D03*
X0387250Y0035000D03*
X0397250Y0035000D03*
X0397250Y0215000D03*
X0387250Y0215000D03*
X0377250Y0215000D03*
X0367250Y0215000D03*
X0357250Y0215000D03*
X0347250Y0215000D03*
X0337250Y0215000D03*
X0327250Y0215000D03*
X0157250Y0215000D03*
X0147250Y0215000D03*
X0137250Y0215000D03*
X0127250Y0215000D03*
X0117250Y0215000D03*
X0107250Y0215000D03*
X0097250Y0215000D03*
X0087250Y0215000D03*
X0087250Y0035000D03*
X0097250Y0035000D03*
X0107250Y0035000D03*
X0117250Y0035000D03*
X0127250Y0035000D03*
X0137250Y0035000D03*
X0147250Y0035000D03*
X0157250Y0035000D03*
D13*
X0217250Y0120000D03*
X0237250Y0120000D03*
X0237250Y0140000D03*
X0217250Y0140000D03*
X0127250Y0160000D03*
X0127250Y0180000D03*
X0367250Y0180000D03*
X0367250Y0160000D03*
D14*
X0402250Y0290000D03*
X0402250Y0300000D03*
X0412250Y0300000D03*
X0412250Y0290000D03*
X0412250Y0310000D03*
X0412250Y0320000D03*
X0402250Y0320000D03*
X0402250Y0310000D03*
X0402250Y0330000D03*
X0412250Y0330000D03*
X0272250Y0330000D03*
X0262250Y0330000D03*
X0262250Y0320000D03*
X0262250Y0310000D03*
X0272250Y0310000D03*
X0272250Y0320000D03*
X0272250Y0300000D03*
X0272250Y0290000D03*
X0262250Y0290000D03*
X0262250Y0300000D03*
D15*
X0102250Y0265000D03*
X0090439Y0245315D03*
X0062880Y0284685D03*
D16*
X0072250Y0300000D03*
X0082250Y0300000D03*
X0092250Y0300000D03*
X0102250Y0300000D03*
X0112250Y0300000D03*
X0122250Y0300000D03*
X0132250Y0300000D03*
X0142250Y0300000D03*
X0152250Y0300000D03*
X0162250Y0300000D03*
X0172250Y0300000D03*
X0182250Y0300000D03*
X0192250Y0300000D03*
X0202250Y0300000D03*
X0212250Y0300000D03*
X0212250Y0390000D03*
X0202250Y0390000D03*
X0192250Y0390000D03*
X0182250Y0390000D03*
X0172250Y0390000D03*
X0162250Y0390000D03*
X0152250Y0390000D03*
X0142250Y0390000D03*
X0132250Y0390000D03*
X0122250Y0390000D03*
X0112250Y0390000D03*
X0102250Y0390000D03*
X0092250Y0390000D03*
X0082250Y0390000D03*
X0072250Y0390000D03*
D17*
X0050951Y0385000D02*
X0050953Y0385158D01*
X0050959Y0385316D01*
X0050969Y0385474D01*
X0050983Y0385632D01*
X0051001Y0385789D01*
X0051022Y0385946D01*
X0051048Y0386102D01*
X0051078Y0386258D01*
X0051111Y0386413D01*
X0051149Y0386566D01*
X0051190Y0386719D01*
X0051235Y0386871D01*
X0051284Y0387022D01*
X0051337Y0387171D01*
X0051393Y0387319D01*
X0051453Y0387465D01*
X0051517Y0387610D01*
X0051585Y0387753D01*
X0051656Y0387895D01*
X0051730Y0388035D01*
X0051808Y0388172D01*
X0051890Y0388308D01*
X0051974Y0388442D01*
X0052063Y0388573D01*
X0052154Y0388702D01*
X0052249Y0388829D01*
X0052346Y0388954D01*
X0052447Y0389076D01*
X0052551Y0389195D01*
X0052658Y0389312D01*
X0052768Y0389426D01*
X0052881Y0389537D01*
X0052996Y0389646D01*
X0053114Y0389751D01*
X0053235Y0389853D01*
X0053358Y0389953D01*
X0053484Y0390049D01*
X0053612Y0390142D01*
X0053742Y0390232D01*
X0053875Y0390318D01*
X0054010Y0390402D01*
X0054146Y0390481D01*
X0054285Y0390558D01*
X0054426Y0390630D01*
X0054568Y0390700D01*
X0054712Y0390765D01*
X0054858Y0390827D01*
X0055005Y0390885D01*
X0055154Y0390940D01*
X0055304Y0390991D01*
X0055455Y0391038D01*
X0055607Y0391081D01*
X0055760Y0391120D01*
X0055915Y0391156D01*
X0056070Y0391187D01*
X0056226Y0391215D01*
X0056382Y0391239D01*
X0056539Y0391259D01*
X0056697Y0391275D01*
X0056854Y0391287D01*
X0057013Y0391295D01*
X0057171Y0391299D01*
X0057329Y0391299D01*
X0057487Y0391295D01*
X0057646Y0391287D01*
X0057803Y0391275D01*
X0057961Y0391259D01*
X0058118Y0391239D01*
X0058274Y0391215D01*
X0058430Y0391187D01*
X0058585Y0391156D01*
X0058740Y0391120D01*
X0058893Y0391081D01*
X0059045Y0391038D01*
X0059196Y0390991D01*
X0059346Y0390940D01*
X0059495Y0390885D01*
X0059642Y0390827D01*
X0059788Y0390765D01*
X0059932Y0390700D01*
X0060074Y0390630D01*
X0060215Y0390558D01*
X0060354Y0390481D01*
X0060490Y0390402D01*
X0060625Y0390318D01*
X0060758Y0390232D01*
X0060888Y0390142D01*
X0061016Y0390049D01*
X0061142Y0389953D01*
X0061265Y0389853D01*
X0061386Y0389751D01*
X0061504Y0389646D01*
X0061619Y0389537D01*
X0061732Y0389426D01*
X0061842Y0389312D01*
X0061949Y0389195D01*
X0062053Y0389076D01*
X0062154Y0388954D01*
X0062251Y0388829D01*
X0062346Y0388702D01*
X0062437Y0388573D01*
X0062526Y0388442D01*
X0062610Y0388308D01*
X0062692Y0388172D01*
X0062770Y0388035D01*
X0062844Y0387895D01*
X0062915Y0387753D01*
X0062983Y0387610D01*
X0063047Y0387465D01*
X0063107Y0387319D01*
X0063163Y0387171D01*
X0063216Y0387022D01*
X0063265Y0386871D01*
X0063310Y0386719D01*
X0063351Y0386566D01*
X0063389Y0386413D01*
X0063422Y0386258D01*
X0063452Y0386102D01*
X0063478Y0385946D01*
X0063499Y0385789D01*
X0063517Y0385632D01*
X0063531Y0385474D01*
X0063541Y0385316D01*
X0063547Y0385158D01*
X0063549Y0385000D01*
X0063547Y0384842D01*
X0063541Y0384684D01*
X0063531Y0384526D01*
X0063517Y0384368D01*
X0063499Y0384211D01*
X0063478Y0384054D01*
X0063452Y0383898D01*
X0063422Y0383742D01*
X0063389Y0383587D01*
X0063351Y0383434D01*
X0063310Y0383281D01*
X0063265Y0383129D01*
X0063216Y0382978D01*
X0063163Y0382829D01*
X0063107Y0382681D01*
X0063047Y0382535D01*
X0062983Y0382390D01*
X0062915Y0382247D01*
X0062844Y0382105D01*
X0062770Y0381965D01*
X0062692Y0381828D01*
X0062610Y0381692D01*
X0062526Y0381558D01*
X0062437Y0381427D01*
X0062346Y0381298D01*
X0062251Y0381171D01*
X0062154Y0381046D01*
X0062053Y0380924D01*
X0061949Y0380805D01*
X0061842Y0380688D01*
X0061732Y0380574D01*
X0061619Y0380463D01*
X0061504Y0380354D01*
X0061386Y0380249D01*
X0061265Y0380147D01*
X0061142Y0380047D01*
X0061016Y0379951D01*
X0060888Y0379858D01*
X0060758Y0379768D01*
X0060625Y0379682D01*
X0060490Y0379598D01*
X0060354Y0379519D01*
X0060215Y0379442D01*
X0060074Y0379370D01*
X0059932Y0379300D01*
X0059788Y0379235D01*
X0059642Y0379173D01*
X0059495Y0379115D01*
X0059346Y0379060D01*
X0059196Y0379009D01*
X0059045Y0378962D01*
X0058893Y0378919D01*
X0058740Y0378880D01*
X0058585Y0378844D01*
X0058430Y0378813D01*
X0058274Y0378785D01*
X0058118Y0378761D01*
X0057961Y0378741D01*
X0057803Y0378725D01*
X0057646Y0378713D01*
X0057487Y0378705D01*
X0057329Y0378701D01*
X0057171Y0378701D01*
X0057013Y0378705D01*
X0056854Y0378713D01*
X0056697Y0378725D01*
X0056539Y0378741D01*
X0056382Y0378761D01*
X0056226Y0378785D01*
X0056070Y0378813D01*
X0055915Y0378844D01*
X0055760Y0378880D01*
X0055607Y0378919D01*
X0055455Y0378962D01*
X0055304Y0379009D01*
X0055154Y0379060D01*
X0055005Y0379115D01*
X0054858Y0379173D01*
X0054712Y0379235D01*
X0054568Y0379300D01*
X0054426Y0379370D01*
X0054285Y0379442D01*
X0054146Y0379519D01*
X0054010Y0379598D01*
X0053875Y0379682D01*
X0053742Y0379768D01*
X0053612Y0379858D01*
X0053484Y0379951D01*
X0053358Y0380047D01*
X0053235Y0380147D01*
X0053114Y0380249D01*
X0052996Y0380354D01*
X0052881Y0380463D01*
X0052768Y0380574D01*
X0052658Y0380688D01*
X0052551Y0380805D01*
X0052447Y0380924D01*
X0052346Y0381046D01*
X0052249Y0381171D01*
X0052154Y0381298D01*
X0052063Y0381427D01*
X0051974Y0381558D01*
X0051890Y0381692D01*
X0051808Y0381828D01*
X0051730Y0381965D01*
X0051656Y0382105D01*
X0051585Y0382247D01*
X0051517Y0382390D01*
X0051453Y0382535D01*
X0051393Y0382681D01*
X0051337Y0382829D01*
X0051284Y0382978D01*
X0051235Y0383129D01*
X0051190Y0383281D01*
X0051149Y0383434D01*
X0051111Y0383587D01*
X0051078Y0383742D01*
X0051048Y0383898D01*
X0051022Y0384054D01*
X0051001Y0384211D01*
X0050983Y0384368D01*
X0050969Y0384526D01*
X0050959Y0384684D01*
X0050953Y0384842D01*
X0050951Y0385000D01*
X0050951Y0305000D02*
X0050953Y0305158D01*
X0050959Y0305316D01*
X0050969Y0305474D01*
X0050983Y0305632D01*
X0051001Y0305789D01*
X0051022Y0305946D01*
X0051048Y0306102D01*
X0051078Y0306258D01*
X0051111Y0306413D01*
X0051149Y0306566D01*
X0051190Y0306719D01*
X0051235Y0306871D01*
X0051284Y0307022D01*
X0051337Y0307171D01*
X0051393Y0307319D01*
X0051453Y0307465D01*
X0051517Y0307610D01*
X0051585Y0307753D01*
X0051656Y0307895D01*
X0051730Y0308035D01*
X0051808Y0308172D01*
X0051890Y0308308D01*
X0051974Y0308442D01*
X0052063Y0308573D01*
X0052154Y0308702D01*
X0052249Y0308829D01*
X0052346Y0308954D01*
X0052447Y0309076D01*
X0052551Y0309195D01*
X0052658Y0309312D01*
X0052768Y0309426D01*
X0052881Y0309537D01*
X0052996Y0309646D01*
X0053114Y0309751D01*
X0053235Y0309853D01*
X0053358Y0309953D01*
X0053484Y0310049D01*
X0053612Y0310142D01*
X0053742Y0310232D01*
X0053875Y0310318D01*
X0054010Y0310402D01*
X0054146Y0310481D01*
X0054285Y0310558D01*
X0054426Y0310630D01*
X0054568Y0310700D01*
X0054712Y0310765D01*
X0054858Y0310827D01*
X0055005Y0310885D01*
X0055154Y0310940D01*
X0055304Y0310991D01*
X0055455Y0311038D01*
X0055607Y0311081D01*
X0055760Y0311120D01*
X0055915Y0311156D01*
X0056070Y0311187D01*
X0056226Y0311215D01*
X0056382Y0311239D01*
X0056539Y0311259D01*
X0056697Y0311275D01*
X0056854Y0311287D01*
X0057013Y0311295D01*
X0057171Y0311299D01*
X0057329Y0311299D01*
X0057487Y0311295D01*
X0057646Y0311287D01*
X0057803Y0311275D01*
X0057961Y0311259D01*
X0058118Y0311239D01*
X0058274Y0311215D01*
X0058430Y0311187D01*
X0058585Y0311156D01*
X0058740Y0311120D01*
X0058893Y0311081D01*
X0059045Y0311038D01*
X0059196Y0310991D01*
X0059346Y0310940D01*
X0059495Y0310885D01*
X0059642Y0310827D01*
X0059788Y0310765D01*
X0059932Y0310700D01*
X0060074Y0310630D01*
X0060215Y0310558D01*
X0060354Y0310481D01*
X0060490Y0310402D01*
X0060625Y0310318D01*
X0060758Y0310232D01*
X0060888Y0310142D01*
X0061016Y0310049D01*
X0061142Y0309953D01*
X0061265Y0309853D01*
X0061386Y0309751D01*
X0061504Y0309646D01*
X0061619Y0309537D01*
X0061732Y0309426D01*
X0061842Y0309312D01*
X0061949Y0309195D01*
X0062053Y0309076D01*
X0062154Y0308954D01*
X0062251Y0308829D01*
X0062346Y0308702D01*
X0062437Y0308573D01*
X0062526Y0308442D01*
X0062610Y0308308D01*
X0062692Y0308172D01*
X0062770Y0308035D01*
X0062844Y0307895D01*
X0062915Y0307753D01*
X0062983Y0307610D01*
X0063047Y0307465D01*
X0063107Y0307319D01*
X0063163Y0307171D01*
X0063216Y0307022D01*
X0063265Y0306871D01*
X0063310Y0306719D01*
X0063351Y0306566D01*
X0063389Y0306413D01*
X0063422Y0306258D01*
X0063452Y0306102D01*
X0063478Y0305946D01*
X0063499Y0305789D01*
X0063517Y0305632D01*
X0063531Y0305474D01*
X0063541Y0305316D01*
X0063547Y0305158D01*
X0063549Y0305000D01*
X0063547Y0304842D01*
X0063541Y0304684D01*
X0063531Y0304526D01*
X0063517Y0304368D01*
X0063499Y0304211D01*
X0063478Y0304054D01*
X0063452Y0303898D01*
X0063422Y0303742D01*
X0063389Y0303587D01*
X0063351Y0303434D01*
X0063310Y0303281D01*
X0063265Y0303129D01*
X0063216Y0302978D01*
X0063163Y0302829D01*
X0063107Y0302681D01*
X0063047Y0302535D01*
X0062983Y0302390D01*
X0062915Y0302247D01*
X0062844Y0302105D01*
X0062770Y0301965D01*
X0062692Y0301828D01*
X0062610Y0301692D01*
X0062526Y0301558D01*
X0062437Y0301427D01*
X0062346Y0301298D01*
X0062251Y0301171D01*
X0062154Y0301046D01*
X0062053Y0300924D01*
X0061949Y0300805D01*
X0061842Y0300688D01*
X0061732Y0300574D01*
X0061619Y0300463D01*
X0061504Y0300354D01*
X0061386Y0300249D01*
X0061265Y0300147D01*
X0061142Y0300047D01*
X0061016Y0299951D01*
X0060888Y0299858D01*
X0060758Y0299768D01*
X0060625Y0299682D01*
X0060490Y0299598D01*
X0060354Y0299519D01*
X0060215Y0299442D01*
X0060074Y0299370D01*
X0059932Y0299300D01*
X0059788Y0299235D01*
X0059642Y0299173D01*
X0059495Y0299115D01*
X0059346Y0299060D01*
X0059196Y0299009D01*
X0059045Y0298962D01*
X0058893Y0298919D01*
X0058740Y0298880D01*
X0058585Y0298844D01*
X0058430Y0298813D01*
X0058274Y0298785D01*
X0058118Y0298761D01*
X0057961Y0298741D01*
X0057803Y0298725D01*
X0057646Y0298713D01*
X0057487Y0298705D01*
X0057329Y0298701D01*
X0057171Y0298701D01*
X0057013Y0298705D01*
X0056854Y0298713D01*
X0056697Y0298725D01*
X0056539Y0298741D01*
X0056382Y0298761D01*
X0056226Y0298785D01*
X0056070Y0298813D01*
X0055915Y0298844D01*
X0055760Y0298880D01*
X0055607Y0298919D01*
X0055455Y0298962D01*
X0055304Y0299009D01*
X0055154Y0299060D01*
X0055005Y0299115D01*
X0054858Y0299173D01*
X0054712Y0299235D01*
X0054568Y0299300D01*
X0054426Y0299370D01*
X0054285Y0299442D01*
X0054146Y0299519D01*
X0054010Y0299598D01*
X0053875Y0299682D01*
X0053742Y0299768D01*
X0053612Y0299858D01*
X0053484Y0299951D01*
X0053358Y0300047D01*
X0053235Y0300147D01*
X0053114Y0300249D01*
X0052996Y0300354D01*
X0052881Y0300463D01*
X0052768Y0300574D01*
X0052658Y0300688D01*
X0052551Y0300805D01*
X0052447Y0300924D01*
X0052346Y0301046D01*
X0052249Y0301171D01*
X0052154Y0301298D01*
X0052063Y0301427D01*
X0051974Y0301558D01*
X0051890Y0301692D01*
X0051808Y0301828D01*
X0051730Y0301965D01*
X0051656Y0302105D01*
X0051585Y0302247D01*
X0051517Y0302390D01*
X0051453Y0302535D01*
X0051393Y0302681D01*
X0051337Y0302829D01*
X0051284Y0302978D01*
X0051235Y0303129D01*
X0051190Y0303281D01*
X0051149Y0303434D01*
X0051111Y0303587D01*
X0051078Y0303742D01*
X0051048Y0303898D01*
X0051022Y0304054D01*
X0051001Y0304211D01*
X0050983Y0304368D01*
X0050969Y0304526D01*
X0050959Y0304684D01*
X0050953Y0304842D01*
X0050951Y0305000D01*
X0220951Y0305000D02*
X0220953Y0305158D01*
X0220959Y0305316D01*
X0220969Y0305474D01*
X0220983Y0305632D01*
X0221001Y0305789D01*
X0221022Y0305946D01*
X0221048Y0306102D01*
X0221078Y0306258D01*
X0221111Y0306413D01*
X0221149Y0306566D01*
X0221190Y0306719D01*
X0221235Y0306871D01*
X0221284Y0307022D01*
X0221337Y0307171D01*
X0221393Y0307319D01*
X0221453Y0307465D01*
X0221517Y0307610D01*
X0221585Y0307753D01*
X0221656Y0307895D01*
X0221730Y0308035D01*
X0221808Y0308172D01*
X0221890Y0308308D01*
X0221974Y0308442D01*
X0222063Y0308573D01*
X0222154Y0308702D01*
X0222249Y0308829D01*
X0222346Y0308954D01*
X0222447Y0309076D01*
X0222551Y0309195D01*
X0222658Y0309312D01*
X0222768Y0309426D01*
X0222881Y0309537D01*
X0222996Y0309646D01*
X0223114Y0309751D01*
X0223235Y0309853D01*
X0223358Y0309953D01*
X0223484Y0310049D01*
X0223612Y0310142D01*
X0223742Y0310232D01*
X0223875Y0310318D01*
X0224010Y0310402D01*
X0224146Y0310481D01*
X0224285Y0310558D01*
X0224426Y0310630D01*
X0224568Y0310700D01*
X0224712Y0310765D01*
X0224858Y0310827D01*
X0225005Y0310885D01*
X0225154Y0310940D01*
X0225304Y0310991D01*
X0225455Y0311038D01*
X0225607Y0311081D01*
X0225760Y0311120D01*
X0225915Y0311156D01*
X0226070Y0311187D01*
X0226226Y0311215D01*
X0226382Y0311239D01*
X0226539Y0311259D01*
X0226697Y0311275D01*
X0226854Y0311287D01*
X0227013Y0311295D01*
X0227171Y0311299D01*
X0227329Y0311299D01*
X0227487Y0311295D01*
X0227646Y0311287D01*
X0227803Y0311275D01*
X0227961Y0311259D01*
X0228118Y0311239D01*
X0228274Y0311215D01*
X0228430Y0311187D01*
X0228585Y0311156D01*
X0228740Y0311120D01*
X0228893Y0311081D01*
X0229045Y0311038D01*
X0229196Y0310991D01*
X0229346Y0310940D01*
X0229495Y0310885D01*
X0229642Y0310827D01*
X0229788Y0310765D01*
X0229932Y0310700D01*
X0230074Y0310630D01*
X0230215Y0310558D01*
X0230354Y0310481D01*
X0230490Y0310402D01*
X0230625Y0310318D01*
X0230758Y0310232D01*
X0230888Y0310142D01*
X0231016Y0310049D01*
X0231142Y0309953D01*
X0231265Y0309853D01*
X0231386Y0309751D01*
X0231504Y0309646D01*
X0231619Y0309537D01*
X0231732Y0309426D01*
X0231842Y0309312D01*
X0231949Y0309195D01*
X0232053Y0309076D01*
X0232154Y0308954D01*
X0232251Y0308829D01*
X0232346Y0308702D01*
X0232437Y0308573D01*
X0232526Y0308442D01*
X0232610Y0308308D01*
X0232692Y0308172D01*
X0232770Y0308035D01*
X0232844Y0307895D01*
X0232915Y0307753D01*
X0232983Y0307610D01*
X0233047Y0307465D01*
X0233107Y0307319D01*
X0233163Y0307171D01*
X0233216Y0307022D01*
X0233265Y0306871D01*
X0233310Y0306719D01*
X0233351Y0306566D01*
X0233389Y0306413D01*
X0233422Y0306258D01*
X0233452Y0306102D01*
X0233478Y0305946D01*
X0233499Y0305789D01*
X0233517Y0305632D01*
X0233531Y0305474D01*
X0233541Y0305316D01*
X0233547Y0305158D01*
X0233549Y0305000D01*
X0233547Y0304842D01*
X0233541Y0304684D01*
X0233531Y0304526D01*
X0233517Y0304368D01*
X0233499Y0304211D01*
X0233478Y0304054D01*
X0233452Y0303898D01*
X0233422Y0303742D01*
X0233389Y0303587D01*
X0233351Y0303434D01*
X0233310Y0303281D01*
X0233265Y0303129D01*
X0233216Y0302978D01*
X0233163Y0302829D01*
X0233107Y0302681D01*
X0233047Y0302535D01*
X0232983Y0302390D01*
X0232915Y0302247D01*
X0232844Y0302105D01*
X0232770Y0301965D01*
X0232692Y0301828D01*
X0232610Y0301692D01*
X0232526Y0301558D01*
X0232437Y0301427D01*
X0232346Y0301298D01*
X0232251Y0301171D01*
X0232154Y0301046D01*
X0232053Y0300924D01*
X0231949Y0300805D01*
X0231842Y0300688D01*
X0231732Y0300574D01*
X0231619Y0300463D01*
X0231504Y0300354D01*
X0231386Y0300249D01*
X0231265Y0300147D01*
X0231142Y0300047D01*
X0231016Y0299951D01*
X0230888Y0299858D01*
X0230758Y0299768D01*
X0230625Y0299682D01*
X0230490Y0299598D01*
X0230354Y0299519D01*
X0230215Y0299442D01*
X0230074Y0299370D01*
X0229932Y0299300D01*
X0229788Y0299235D01*
X0229642Y0299173D01*
X0229495Y0299115D01*
X0229346Y0299060D01*
X0229196Y0299009D01*
X0229045Y0298962D01*
X0228893Y0298919D01*
X0228740Y0298880D01*
X0228585Y0298844D01*
X0228430Y0298813D01*
X0228274Y0298785D01*
X0228118Y0298761D01*
X0227961Y0298741D01*
X0227803Y0298725D01*
X0227646Y0298713D01*
X0227487Y0298705D01*
X0227329Y0298701D01*
X0227171Y0298701D01*
X0227013Y0298705D01*
X0226854Y0298713D01*
X0226697Y0298725D01*
X0226539Y0298741D01*
X0226382Y0298761D01*
X0226226Y0298785D01*
X0226070Y0298813D01*
X0225915Y0298844D01*
X0225760Y0298880D01*
X0225607Y0298919D01*
X0225455Y0298962D01*
X0225304Y0299009D01*
X0225154Y0299060D01*
X0225005Y0299115D01*
X0224858Y0299173D01*
X0224712Y0299235D01*
X0224568Y0299300D01*
X0224426Y0299370D01*
X0224285Y0299442D01*
X0224146Y0299519D01*
X0224010Y0299598D01*
X0223875Y0299682D01*
X0223742Y0299768D01*
X0223612Y0299858D01*
X0223484Y0299951D01*
X0223358Y0300047D01*
X0223235Y0300147D01*
X0223114Y0300249D01*
X0222996Y0300354D01*
X0222881Y0300463D01*
X0222768Y0300574D01*
X0222658Y0300688D01*
X0222551Y0300805D01*
X0222447Y0300924D01*
X0222346Y0301046D01*
X0222249Y0301171D01*
X0222154Y0301298D01*
X0222063Y0301427D01*
X0221974Y0301558D01*
X0221890Y0301692D01*
X0221808Y0301828D01*
X0221730Y0301965D01*
X0221656Y0302105D01*
X0221585Y0302247D01*
X0221517Y0302390D01*
X0221453Y0302535D01*
X0221393Y0302681D01*
X0221337Y0302829D01*
X0221284Y0302978D01*
X0221235Y0303129D01*
X0221190Y0303281D01*
X0221149Y0303434D01*
X0221111Y0303587D01*
X0221078Y0303742D01*
X0221048Y0303898D01*
X0221022Y0304054D01*
X0221001Y0304211D01*
X0220983Y0304368D01*
X0220969Y0304526D01*
X0220959Y0304684D01*
X0220953Y0304842D01*
X0220951Y0305000D01*
X0220951Y0385000D02*
X0220953Y0385158D01*
X0220959Y0385316D01*
X0220969Y0385474D01*
X0220983Y0385632D01*
X0221001Y0385789D01*
X0221022Y0385946D01*
X0221048Y0386102D01*
X0221078Y0386258D01*
X0221111Y0386413D01*
X0221149Y0386566D01*
X0221190Y0386719D01*
X0221235Y0386871D01*
X0221284Y0387022D01*
X0221337Y0387171D01*
X0221393Y0387319D01*
X0221453Y0387465D01*
X0221517Y0387610D01*
X0221585Y0387753D01*
X0221656Y0387895D01*
X0221730Y0388035D01*
X0221808Y0388172D01*
X0221890Y0388308D01*
X0221974Y0388442D01*
X0222063Y0388573D01*
X0222154Y0388702D01*
X0222249Y0388829D01*
X0222346Y0388954D01*
X0222447Y0389076D01*
X0222551Y0389195D01*
X0222658Y0389312D01*
X0222768Y0389426D01*
X0222881Y0389537D01*
X0222996Y0389646D01*
X0223114Y0389751D01*
X0223235Y0389853D01*
X0223358Y0389953D01*
X0223484Y0390049D01*
X0223612Y0390142D01*
X0223742Y0390232D01*
X0223875Y0390318D01*
X0224010Y0390402D01*
X0224146Y0390481D01*
X0224285Y0390558D01*
X0224426Y0390630D01*
X0224568Y0390700D01*
X0224712Y0390765D01*
X0224858Y0390827D01*
X0225005Y0390885D01*
X0225154Y0390940D01*
X0225304Y0390991D01*
X0225455Y0391038D01*
X0225607Y0391081D01*
X0225760Y0391120D01*
X0225915Y0391156D01*
X0226070Y0391187D01*
X0226226Y0391215D01*
X0226382Y0391239D01*
X0226539Y0391259D01*
X0226697Y0391275D01*
X0226854Y0391287D01*
X0227013Y0391295D01*
X0227171Y0391299D01*
X0227329Y0391299D01*
X0227487Y0391295D01*
X0227646Y0391287D01*
X0227803Y0391275D01*
X0227961Y0391259D01*
X0228118Y0391239D01*
X0228274Y0391215D01*
X0228430Y0391187D01*
X0228585Y0391156D01*
X0228740Y0391120D01*
X0228893Y0391081D01*
X0229045Y0391038D01*
X0229196Y0390991D01*
X0229346Y0390940D01*
X0229495Y0390885D01*
X0229642Y0390827D01*
X0229788Y0390765D01*
X0229932Y0390700D01*
X0230074Y0390630D01*
X0230215Y0390558D01*
X0230354Y0390481D01*
X0230490Y0390402D01*
X0230625Y0390318D01*
X0230758Y0390232D01*
X0230888Y0390142D01*
X0231016Y0390049D01*
X0231142Y0389953D01*
X0231265Y0389853D01*
X0231386Y0389751D01*
X0231504Y0389646D01*
X0231619Y0389537D01*
X0231732Y0389426D01*
X0231842Y0389312D01*
X0231949Y0389195D01*
X0232053Y0389076D01*
X0232154Y0388954D01*
X0232251Y0388829D01*
X0232346Y0388702D01*
X0232437Y0388573D01*
X0232526Y0388442D01*
X0232610Y0388308D01*
X0232692Y0388172D01*
X0232770Y0388035D01*
X0232844Y0387895D01*
X0232915Y0387753D01*
X0232983Y0387610D01*
X0233047Y0387465D01*
X0233107Y0387319D01*
X0233163Y0387171D01*
X0233216Y0387022D01*
X0233265Y0386871D01*
X0233310Y0386719D01*
X0233351Y0386566D01*
X0233389Y0386413D01*
X0233422Y0386258D01*
X0233452Y0386102D01*
X0233478Y0385946D01*
X0233499Y0385789D01*
X0233517Y0385632D01*
X0233531Y0385474D01*
X0233541Y0385316D01*
X0233547Y0385158D01*
X0233549Y0385000D01*
X0233547Y0384842D01*
X0233541Y0384684D01*
X0233531Y0384526D01*
X0233517Y0384368D01*
X0233499Y0384211D01*
X0233478Y0384054D01*
X0233452Y0383898D01*
X0233422Y0383742D01*
X0233389Y0383587D01*
X0233351Y0383434D01*
X0233310Y0383281D01*
X0233265Y0383129D01*
X0233216Y0382978D01*
X0233163Y0382829D01*
X0233107Y0382681D01*
X0233047Y0382535D01*
X0232983Y0382390D01*
X0232915Y0382247D01*
X0232844Y0382105D01*
X0232770Y0381965D01*
X0232692Y0381828D01*
X0232610Y0381692D01*
X0232526Y0381558D01*
X0232437Y0381427D01*
X0232346Y0381298D01*
X0232251Y0381171D01*
X0232154Y0381046D01*
X0232053Y0380924D01*
X0231949Y0380805D01*
X0231842Y0380688D01*
X0231732Y0380574D01*
X0231619Y0380463D01*
X0231504Y0380354D01*
X0231386Y0380249D01*
X0231265Y0380147D01*
X0231142Y0380047D01*
X0231016Y0379951D01*
X0230888Y0379858D01*
X0230758Y0379768D01*
X0230625Y0379682D01*
X0230490Y0379598D01*
X0230354Y0379519D01*
X0230215Y0379442D01*
X0230074Y0379370D01*
X0229932Y0379300D01*
X0229788Y0379235D01*
X0229642Y0379173D01*
X0229495Y0379115D01*
X0229346Y0379060D01*
X0229196Y0379009D01*
X0229045Y0378962D01*
X0228893Y0378919D01*
X0228740Y0378880D01*
X0228585Y0378844D01*
X0228430Y0378813D01*
X0228274Y0378785D01*
X0228118Y0378761D01*
X0227961Y0378741D01*
X0227803Y0378725D01*
X0227646Y0378713D01*
X0227487Y0378705D01*
X0227329Y0378701D01*
X0227171Y0378701D01*
X0227013Y0378705D01*
X0226854Y0378713D01*
X0226697Y0378725D01*
X0226539Y0378741D01*
X0226382Y0378761D01*
X0226226Y0378785D01*
X0226070Y0378813D01*
X0225915Y0378844D01*
X0225760Y0378880D01*
X0225607Y0378919D01*
X0225455Y0378962D01*
X0225304Y0379009D01*
X0225154Y0379060D01*
X0225005Y0379115D01*
X0224858Y0379173D01*
X0224712Y0379235D01*
X0224568Y0379300D01*
X0224426Y0379370D01*
X0224285Y0379442D01*
X0224146Y0379519D01*
X0224010Y0379598D01*
X0223875Y0379682D01*
X0223742Y0379768D01*
X0223612Y0379858D01*
X0223484Y0379951D01*
X0223358Y0380047D01*
X0223235Y0380147D01*
X0223114Y0380249D01*
X0222996Y0380354D01*
X0222881Y0380463D01*
X0222768Y0380574D01*
X0222658Y0380688D01*
X0222551Y0380805D01*
X0222447Y0380924D01*
X0222346Y0381046D01*
X0222249Y0381171D01*
X0222154Y0381298D01*
X0222063Y0381427D01*
X0221974Y0381558D01*
X0221890Y0381692D01*
X0221808Y0381828D01*
X0221730Y0381965D01*
X0221656Y0382105D01*
X0221585Y0382247D01*
X0221517Y0382390D01*
X0221453Y0382535D01*
X0221393Y0382681D01*
X0221337Y0382829D01*
X0221284Y0382978D01*
X0221235Y0383129D01*
X0221190Y0383281D01*
X0221149Y0383434D01*
X0221111Y0383587D01*
X0221078Y0383742D01*
X0221048Y0383898D01*
X0221022Y0384054D01*
X0221001Y0384211D01*
X0220983Y0384368D01*
X0220969Y0384526D01*
X0220959Y0384684D01*
X0220953Y0384842D01*
X0220951Y0385000D01*
D18*
X0268950Y0337000D02*
X0394950Y0337000D01*
X0401250Y0330700D01*
X0402250Y0330000D01*
X0401250Y0329650D01*
X0396000Y0324400D01*
X0396000Y0286600D01*
X0403350Y0279250D01*
X0403350Y0229900D01*
X0318300Y0229900D01*
X0237450Y0149050D01*
X0237450Y0140650D01*
X0237250Y0140000D01*
X0236400Y0140650D01*
X0217500Y0140650D01*
X0217250Y0140000D01*
X0220650Y0127000D02*
X0295200Y0127000D01*
X0306750Y0115450D01*
X0307250Y0115000D01*
X0310950Y0123850D02*
X0320400Y0123850D01*
X0326700Y0117550D01*
X0326700Y0115450D01*
X0327250Y0115000D01*
X0317250Y0115000D02*
X0317250Y0113350D01*
X0326700Y0103900D01*
X0326700Y0035650D01*
X0327250Y0035000D01*
X0357250Y0035000D02*
X0358200Y0035650D01*
X0358200Y0103900D01*
X0366600Y0112300D01*
X0366600Y0114400D01*
X0367250Y0115000D01*
X0358200Y0115450D02*
X0357250Y0115000D01*
X0358200Y0115450D02*
X0345600Y0128050D01*
X0313050Y0128050D01*
X0300450Y0140650D01*
X0300450Y0150100D01*
X0326700Y0176350D01*
X0326700Y0214150D01*
X0327250Y0215000D01*
X0324600Y0221500D02*
X0300450Y0197350D01*
X0294150Y0199450D02*
X0294150Y0140650D01*
X0310950Y0123850D01*
X0291000Y0119650D02*
X0237450Y0119650D01*
X0237250Y0120000D01*
X0236400Y0119650D01*
X0217500Y0119650D01*
X0217250Y0120000D01*
X0210150Y0115450D02*
X0223800Y0101800D01*
X0278400Y0101800D01*
X0333000Y0098650D02*
X0333000Y0095500D01*
X0333000Y0098650D02*
X0346650Y0112300D01*
X0346650Y0114400D01*
X0347250Y0115000D01*
X0357250Y0145000D02*
X0358200Y0145900D01*
X0358200Y0171100D01*
X0366600Y0179500D01*
X0367250Y0180000D01*
X0378150Y0184750D02*
X0406500Y0156400D01*
X0406500Y0145900D01*
X0407250Y0145000D01*
X0398100Y0144850D02*
X0398100Y0142750D01*
X0405450Y0135400D01*
X0408600Y0135400D01*
X0423300Y0120700D01*
X0423300Y0109150D01*
X0387600Y0073450D01*
X0387600Y0035650D01*
X0387250Y0035000D01*
X0378150Y0035650D02*
X0377250Y0035000D01*
X0378150Y0035650D02*
X0378150Y0083950D01*
X0406500Y0112300D01*
X0406500Y0114400D01*
X0407250Y0115000D01*
X0398100Y0144850D02*
X0397250Y0145000D01*
X0387250Y0145000D02*
X0386550Y0145900D01*
X0386550Y0170050D01*
X0367650Y0188950D01*
X0367650Y0214150D01*
X0367250Y0215000D01*
X0377250Y0215000D02*
X0378150Y0214150D01*
X0378150Y0184750D01*
X0384450Y0194200D02*
X0392850Y0202600D01*
X0392850Y0203650D01*
X0398100Y0208900D01*
X0400200Y0208900D01*
X0403350Y0212050D01*
X0403350Y0229900D01*
X0397250Y0215000D02*
X0386550Y0225700D01*
X0320400Y0225700D01*
X0294150Y0199450D01*
X0324600Y0221500D02*
X0380250Y0221500D01*
X0386550Y0215200D01*
X0387250Y0215000D01*
X0398100Y0200500D02*
X0411750Y0214150D01*
X0411750Y0289750D01*
X0412250Y0290000D01*
X0418050Y0286600D02*
X0419100Y0287650D01*
X0419100Y0292900D01*
X0412800Y0299200D01*
X0412250Y0300000D01*
X0418050Y0286600D02*
X0418050Y0145900D01*
X0417250Y0145000D01*
X0346650Y0176350D02*
X0317250Y0146950D01*
X0317250Y0145000D01*
X0346650Y0176350D02*
X0346650Y0214150D01*
X0347250Y0215000D01*
X0292050Y0260350D02*
X0212250Y0180550D01*
X0184950Y0180550D01*
X0184950Y0177400D01*
X0177600Y0170050D01*
X0177600Y0145900D01*
X0177250Y0145000D01*
X0167250Y0145000D02*
X0167100Y0145900D01*
X0167100Y0162700D01*
X0137700Y0192100D01*
X0137700Y0214150D01*
X0137250Y0215000D01*
X0128250Y0214150D02*
X0127250Y0215000D01*
X0128250Y0214150D02*
X0128250Y0195250D01*
X0147150Y0176350D01*
X0147150Y0145900D01*
X0147250Y0145000D01*
X0137700Y0144850D02*
X0137700Y0142750D01*
X0149250Y0131200D01*
X0172350Y0131200D01*
X0201750Y0101800D01*
X0201750Y0094450D01*
X0157650Y0050350D01*
X0157650Y0035650D01*
X0157250Y0035000D01*
X0137700Y0035650D02*
X0137250Y0035000D01*
X0137700Y0035650D02*
X0137700Y0083950D01*
X0168150Y0114400D01*
X0167250Y0115000D01*
X0157250Y0115000D02*
X0156600Y0115450D01*
X0156600Y0117550D01*
X0139800Y0134350D01*
X0066300Y0134350D01*
X0061050Y0139600D01*
X0061050Y0150100D01*
X0096750Y0185800D01*
X0096750Y0214150D01*
X0097250Y0215000D01*
X0087250Y0215000D02*
X0086250Y0214150D01*
X0086250Y0181600D01*
X0056850Y0152200D01*
X0056850Y0137500D01*
X0064200Y0130150D01*
X0104100Y0130150D01*
X0116700Y0117550D01*
X0116700Y0115450D01*
X0117250Y0115000D01*
X0127250Y0115000D02*
X0128250Y0114400D01*
X0117750Y0103900D01*
X0117750Y0035650D01*
X0117250Y0035000D01*
X0087250Y0035000D02*
X0086250Y0035650D01*
X0086250Y0103900D01*
X0077850Y0112300D01*
X0077850Y0114400D01*
X0077250Y0115000D01*
X0086250Y0114400D02*
X0087250Y0115000D01*
X0086250Y0114400D02*
X0092550Y0108100D01*
X0092550Y0069250D01*
X0067350Y0069250D02*
X0063150Y0065050D01*
X0058950Y0065050D01*
X0052650Y0071350D01*
X0052650Y0191050D01*
X0121950Y0260350D01*
X0121950Y0290800D01*
X0121950Y0299200D02*
X0122250Y0300000D01*
X0121950Y0299200D02*
X0184950Y0236200D01*
X0184950Y0180550D01*
X0178650Y0179500D02*
X0177600Y0179500D01*
X0157650Y0199450D01*
X0148200Y0193150D02*
X0161850Y0179500D01*
X0148200Y0193150D02*
X0148200Y0214150D01*
X0147250Y0215000D01*
X0117750Y0214150D02*
X0117750Y0199450D01*
X0140850Y0176350D01*
X0140850Y0174250D01*
X0127200Y0179500D02*
X0127250Y0180000D01*
X0127200Y0179500D02*
X0117750Y0170050D01*
X0117750Y0145900D01*
X0117250Y0145000D01*
X0137250Y0145000D02*
X0137700Y0144850D01*
X0157250Y0145000D02*
X0157650Y0144850D01*
X0157650Y0142750D01*
X0165000Y0135400D01*
X0174450Y0135400D01*
X0208050Y0101800D01*
X0208050Y0095500D01*
X0195450Y0099700D02*
X0180750Y0114400D01*
X0177600Y0114400D01*
X0177250Y0115000D01*
X0179700Y0106000D02*
X0172350Y0106000D01*
X0179700Y0106000D02*
X0192300Y0093400D01*
X0220650Y0127000D02*
X0203850Y0143800D01*
X0203850Y0154300D01*
X0210150Y0186850D02*
X0210150Y0238300D01*
X0210675Y0238825D01*
X0210150Y0239350D01*
X0192300Y0239350D01*
X0132450Y0299200D01*
X0132250Y0300000D01*
X0130350Y0330700D02*
X0261600Y0330700D01*
X0262250Y0330000D01*
X0262650Y0330700D01*
X0268950Y0337000D01*
X0272250Y0300000D02*
X0273150Y0299200D01*
X0284700Y0299200D01*
X0292050Y0291850D01*
X0292050Y0283450D01*
X0292050Y0260350D01*
X0275250Y0283450D02*
X0268950Y0283450D01*
X0262650Y0289750D01*
X0262250Y0290000D01*
X0261600Y0289750D01*
X0210675Y0238825D01*
X0275250Y0283450D02*
X0281550Y0289750D01*
X0285750Y0289750D01*
X0130350Y0330700D02*
X0074700Y0386350D01*
X0074700Y0387400D01*
X0072600Y0389500D01*
X0072250Y0390000D01*
X0107250Y0215000D02*
X0107250Y0176350D01*
X0076800Y0145900D01*
X0077250Y0145000D01*
X0083100Y0123850D02*
X0064200Y0123850D01*
X0061050Y0120700D01*
X0061050Y0071350D01*
X0067350Y0069250D02*
X0067350Y0114400D01*
X0067250Y0115000D01*
X0117750Y0214150D02*
X0117250Y0215000D01*
D19*
X0157650Y0199450D03*
X0161850Y0179500D03*
X0178650Y0179500D03*
X0203850Y0154300D03*
X0210150Y0186850D03*
X0140850Y0174250D03*
X0083100Y0123850D03*
X0092550Y0069250D03*
X0061050Y0071350D03*
X0172350Y0106000D03*
X0192300Y0093400D03*
X0195450Y0099700D03*
X0208050Y0095500D03*
X0210150Y0115450D03*
X0278400Y0101800D03*
X0291000Y0119650D03*
X0333000Y0095500D03*
X0384450Y0194200D03*
X0398100Y0200500D03*
X0300450Y0197350D03*
X0292050Y0283450D03*
X0285750Y0289750D03*
X0121950Y0290800D03*
D20*
X0127250Y0160000D02*
X0127200Y0159550D01*
X0127200Y0145900D01*
X0127250Y0145000D01*
X0367250Y0145000D02*
X0367650Y0145900D01*
X0367650Y0159550D01*
X0367250Y0160000D01*
M02*
