%
M48
M72
T01C0.02400
T02C0.03150
T03C0.03200
T04C0.03600
T05C0.11811
T06C0.12598
%
T01
X61050Y71350
X92550Y69250
X83100Y123850
X140850Y174250
X161850Y179500
X178650Y179500
X157650Y199450
X210150Y186850
X203850Y154300
X210150Y115450
X195450Y99700
X192300Y93400
X208050Y95500
X172350Y106000
X278400Y101800
X291000Y119650
X333000Y95500
X384450Y194200
X398100Y200500
X300450Y197350
X292050Y283450
X285750Y289750
X121950Y290800
T02
X122250Y300000
X112250Y300000
X102250Y300000
X92250Y300000
X82250Y300000
X72250Y300000
X132250Y300000
X142250Y300000
X152250Y300000
X162250Y300000
X172250Y300000
X182250Y300000
X192250Y300000
X202250Y300000
X212250Y300000
X157250Y215000
X147250Y215000
X137250Y215000
X127250Y215000
X117250Y215000
X107250Y215000
X97250Y215000
X87250Y215000
X82250Y390000
X72250Y390000
X92250Y390000
X102250Y390000
X112250Y390000
X122250Y390000
X132250Y390000
X142250Y390000
X152250Y390000
X162250Y390000
X172250Y390000
X182250Y390000
X192250Y390000
X202250Y390000
X212250Y390000
X327250Y215000
X337250Y215000
X347250Y215000
X357250Y215000
X367250Y215000
X377250Y215000
X387250Y215000
X397250Y215000
X397250Y35000
X387250Y35000
X377250Y35000
X367250Y35000
X357250Y35000
X347250Y35000
X337250Y35000
X327250Y35000
X157250Y35000
X147250Y35000
X137250Y35000
X127250Y35000
X117250Y35000
X107250Y35000
X97250Y35000
X87250Y35000
T03
X87250Y115000
X77250Y115000
X67250Y115000
X97250Y115000
X107250Y115000
X117250Y115000
X127250Y115000
X137250Y115000
X147250Y115000
X157250Y115000
X167250Y115000
X177250Y115000
X177250Y145000
X167250Y145000
X157250Y145000
X147250Y145000
X137250Y145000
X127250Y145000
X117250Y145000
X107250Y145000
X97250Y145000
X87250Y145000
X77250Y145000
X67250Y145000
X127250Y160000
X127250Y180000
X217250Y140000
X237250Y140000
X237250Y120000
X217250Y120000
X307250Y115000
X317250Y115000
X327250Y115000
X337250Y115000
X347250Y115000
X357250Y115000
X367250Y115000
X377250Y115000
X387250Y115000
X397250Y115000
X407250Y115000
X417250Y115000
X417250Y145000
X407250Y145000
X397250Y145000
X387250Y145000
X377250Y145000
X367250Y145000
X357250Y145000
X347250Y145000
X337250Y145000
X327250Y145000
X317250Y145000
X307250Y145000
X367250Y160000
X367250Y180000
T04
X402250Y290000
X402250Y300000
X412250Y300000
X412250Y290000
X412250Y310000
X412250Y320000
X402250Y320000
X402250Y310000
X402250Y330000
X412250Y330000
X272250Y330000
X262250Y330000
X262250Y320000
X262250Y310000
X272250Y310000
X272250Y320000
X272250Y300000
X272250Y290000
X262250Y290000
X262250Y300000
T05
X102250Y265000
X90439Y245315
X62880Y284685
T06
X57250Y305000
X57250Y385000
X227250Y385000
X227250Y305000
M30
